<svg width="497" height="607" viewBox="0 0 497 607" fill="none" xmlns="http://www.w3.org/2000/svg">
<path d="M204.28 490.031C196.856 482.857 209.749 481.66 210.14 476.471C210.529 471.287 206.555 469.916 208.186 461.712C212.875 438.178 216.745 398.477 217.392 365.134C218.649 299.592 245.793 259.937 257.232 289.066C271.652 325.789 280.132 353.237 276.507 388.094C272.898 422.934 271.898 544.337 255.447 565.819C254.836 566.617 205.279 490.994 204.28 490.031Z" fill="#D0CAD0"/>
<path d="M243.207 318.277C237.109 330.04 228.371 373.538 228.775 386.564C229.187 400.016 232.435 415.563 230.406 428.596C227.968 424.817 226.337 419.772 223.902 415.563C223.902 417.671 223.902 420.189 224.308 422.71C226.337 435.319 240.567 457.599 234.472 470.201C232.435 474.824 229.187 474.824 224.308 473.563C222.277 473.143 218.614 469.361 216.579 470.201C213.329 471.882 214.96 475.247 216.988 477.345C221.867 481.97 244.227 477.345 240.161 490.374C234.472 488.273 227.968 484.071 221.867 484.491C215.414 484.859 209.592 488.166 203.283 488.938C203.571 489.294 203.888 489.647 204.28 490.03C205.279 490.993 254.836 566.617 255.447 565.819C271.898 544.337 272.898 422.934 276.507 388.094C279.159 362.594 275.315 341.038 267.42 316.931C257.149 313.646 250.331 305.386 243.207 318.277Z" fill="#C2BEC4"/>
<path d="M157.534 466.26L170.976 479.933C176.735 483.718 178.776 476.302 184.328 481.501C188.72 485.077 194.148 489.316 201.002 490.383C204.54 490.199 213.18 490.809 218.767 490.944C231.897 492.254 246.893 514.35 251.427 526.646C257.418 542.782 257.427 548.309 244.155 565.445C225.553 587.786 165.8 551.081 144.633 521.858C138.304 498.446 137.162 479.884 157.534 466.26Z" fill="#DBD5DA"/>
<path d="M157.534 466.26L170.976 479.933C173.313 481.467 175.036 481.157 176.634 480.596C191.182 485.451 182.201 520.671 184.734 540.938C186.787 552.308 210.095 569.386 226.247 564.316C235.418 562.549 239.475 550.008 241.441 539.825C242.613 519.886 231.942 500.876 215.395 490.831C216.587 490.877 217.723 490.917 218.767 490.944C231.897 492.254 246.893 514.35 251.427 526.646C257.418 542.782 257.427 548.309 244.155 565.445C225.553 587.786 165.8 551.081 144.633 521.858C138.304 498.446 137.162 479.884 157.534 466.26Z" fill="#D0CAD0"/>
<path d="M393.323 194.194C408.609 182.894 424.162 177.929 433.878 131.36C435.842 125.643 434.982 117.399 436.319 109.403C428.629 119.497 414.995 24.5721 391.425 122.932C393.071 122.196 355.384 186.823 350.891 188.302C354.728 196.261 371.868 221.12 381.863 217.087C380.81 206.919 389.364 199.432 393.323 194.194Z" fill="#381F1D"/>
<path d="M314.917 351.212C344.353 356.945 410.794 285.119 422.373 266.872C422.373 266.872 388.322 250.089 383.079 242.105C381.275 233.361 379.561 231.545 379.199 201.401C379.199 201.401 331.817 186.489 308.73 225.153C308.73 225.153 311.426 233.609 312.162 247.451C312.162 247.451 296.811 257.263 289.924 264.857C284.668 270.663 301.764 348.654 314.917 351.212Z" fill="#ECCA9F"/>
<path d="M383.079 242.105C381.895 236.379 380.759 233.575 380.003 223.899C367.641 234.762 355.914 245.669 339.943 249.531C337.164 249.997 337.327 263.551 336.93 270.694C332.804 263.133 331.164 251.481 328.409 248.212C320.896 243.718 315.122 239.372 310.866 235.081C311.4 238.468 311.904 242.611 312.162 247.451C312.162 247.451 296.811 257.263 289.924 264.857C284.668 270.663 301.764 348.654 314.917 351.212C344.353 356.945 410.794 285.119 422.373 266.872C422.373 266.872 388.322 250.089 383.079 242.105Z" fill="#DDA77B"/>
<path d="M379.475 213.786C379.35 210.271 379.252 206.235 379.199 201.401C379.199 201.401 328.738 186.851 305.648 225.512C305.648 225.512 308.401 228.659 310.845 233.811C330.639 252.131 360.036 234.824 379.475 213.786Z" fill="#DDA77B"/>
<path d="M402.307 149.064C402.307 149.064 395.251 143.439 396.986 127.308C399.252 106.151 405.605 75.0875 384.414 56.5314C373.384 46.8699 344.582 53.3815 320.464 51.9184C295.628 50.3849 261.947 29.9915 258.878 100.305C258.878 100.305 261.194 120.404 259.88 133.897C258.872 144.273 255.185 155.305 268.004 182.486C277.764 203.202 278.645 219.074 291.087 224.365C301.055 228.585 324.067 229.22 339.872 225.788C353.667 222.779 365.844 216.108 374.184 210.09C382.699 203.925 385.971 197.236 394.325 179.536C394.325 179.536 405.023 185.998 418.052 163.252C434.833 133.949 412.58 130.05 402.307 149.064Z" fill="#ECCA9F"/>
<path d="M398.368 115.494C400.622 95.7264 401.927 71.8672 384.414 56.5316C373.384 46.8701 344.582 53.3816 320.464 51.9186C296.983 50.4709 265.62 32.2062 259.664 89.6167C281.22 62.537 361.304 86.9115 398.368 115.494Z" fill="#DDA77B"/>
<path d="M259.006 83.4762C255.93 97.3212 259.777 108.584 259.818 108.995C261.177 66.3493 294.382 62.4265 307.147 37.9293C282.979 34.6782 266.889 47.9588 259.006 83.4762Z" fill="#381F1D"/>
<path d="M295.532 162.283C299.266 157.925 305.227 149.748 308.095 131.909C308.095 131.909 310.978 145.766 297.949 165.884L303.673 172.365L294.375 166.966C294.375 166.966 293.758 164.369 295.532 162.283Z" fill="#CA9E71"/>
<path d="M306.945 170.54C306.945 170.54 310.976 167.693 312.613 169.65C314.268 171.589 306.945 170.54 306.945 170.54Z" fill="#B3885A"/>
<path d="M266.146 97.177C272.309 93.8308 283.903 92.6837 293.239 98.1248C296.042 99.7442 298.412 104.388 299.032 109.424C297.279 108.933 279.623 99.3148 261.514 103.916C262.131 102.63 262.54 99.1277 266.146 97.177Z" fill="#2A1010"/>
<path d="M371.915 106.998C360.873 98.4407 337.819 95.3552 326.718 98.4009C324.022 99.1431 324.71 104.78 326.006 109.326C328.421 109.627 357.403 103.799 375.916 115.951C374.688 112.777 375.044 109.424 371.915 106.998Z" fill="#2A1010"/>
<path d="M292.119 179.358C292.119 179.358 308.654 188.332 342.103 182.238C342.103 182.238 335.201 197.472 325.159 200.999C319.355 203.045 304.513 204.008 296.126 198.589C296.304 194.408 294.575 185.424 292.119 179.358Z" fill="white"/>
<path d="M365.421 127.772C365.421 127.772 363.65 136.829 358.638 139.758C355.515 141.602 338.968 142.246 335.335 138.541C332.915 136.038 334.519 123.567 334.519 123.567C345.894 114.188 365.421 127.772 365.421 127.772Z" fill="white"/>
<path d="M365.215 128.64C365.34 128.137 365.42 127.772 365.42 127.772C365.42 127.772 345.893 114.188 334.519 123.567C334.519 123.567 334.338 124.876 334.201 126.729C344.54 125.953 354.924 126.52 365.215 128.64Z" fill="#CCCED4"/>
<path d="M345.825 140.322C350.953 142.261 356.603 139.341 358.466 133.75C360.304 128.189 357.638 122.067 352.504 120.119C347.341 118.165 341.685 121.085 339.843 126.668C337.986 132.228 340.665 138.35 345.825 140.322Z" fill="#3F4546"/>
<path d="M358.741 127.539C357.97 124.208 355.728 121.34 352.504 120.119C347.402 118.19 341.859 121.015 339.943 126.453C346.21 126.284 352.483 126.643 358.741 127.539Z" fill="#262928"/>
<path d="M347.756 135.553C350.292 136.424 352.97 134.845 353.78 132.01C354.566 129.192 353.148 126.155 350.633 125.293C348.085 124.401 345.407 125.984 344.604 128.827C343.809 131.642 345.229 134.657 347.756 135.553Z" fill="#231F20"/>
<path d="M351.789 132.578C353.429 133.142 355.232 132.609 355.801 131.397C356.395 130.189 355.543 128.741 353.897 128.17C352.26 127.615 350.448 128.149 349.879 129.37C349.303 130.593 350.157 132.017 351.789 132.578Z" fill="white"/>
<path d="M349.947 118.859C341.58 117.144 335.726 118.021 333.644 119.202C331.556 120.358 333.926 127.873 334.261 127.9C334.614 128.029 334.27 122.8 336.939 122.058C339.599 121.312 345.931 121.183 352.361 122.484C358.803 123.772 364.975 128.382 365.37 127.937C365.634 127.762 360.933 121.125 349.947 118.859Z" fill="#231F20"/>
<path d="M291.221 116.975C291.221 116.975 294.042 121.196 294.208 122.745C294.501 125.631 294.964 132.29 293.063 134.164C291.049 136.166 273.906 134.492 270.516 131.323C267.613 128.603 269.523 120.082 269.523 120.082C275.042 110.853 291.221 116.975 291.221 116.975Z" fill="white"/>
<path d="M294.204 122.809C294.213 122.778 294.213 122.76 294.207 122.745C294.041 121.196 291.221 116.975 291.221 116.975C291.221 116.975 275.042 110.853 269.523 120.082C269.523 120.082 269.41 120.598 269.273 121.42C277.845 119.438 286.292 118.671 294.204 122.809Z" fill="#CCCED4"/>
<path d="M283.996 134.706C288.824 135.418 293.151 131.569 293.608 126.137C294.053 120.702 290.476 115.727 285.588 115.018C280.713 114.31 276.427 118.129 275.982 123.557C275.516 129.001 279.111 133.998 283.996 134.706Z" fill="#3F4546"/>
<path d="M293.257 122.355C292.246 118.561 289.295 115.549 285.587 115.019C281.845 114.473 278.481 116.61 276.895 120.067C282.503 119.448 287.99 119.874 293.257 122.355Z" fill="#262928"/>
<path d="M284.745 129.873C287.094 130.204 289.203 128.342 289.428 125.695C289.653 123.042 287.904 120.616 285.516 120.266C283.134 119.914 281.049 121.782 280.836 124.432C280.611 127.094 282.36 129.514 284.745 129.873Z" fill="#231F20"/>
<path d="M287.453 126.977C288.841 127.576 290.478 127.094 291.136 125.91C291.804 124.729 291.222 123.282 289.831 122.683C288.482 122.098 286.818 122.579 286.16 123.769C285.501 124.944 286.085 126.392 287.453 126.977Z" fill="white"/>
<path d="M292.22 116.537C290.622 114.758 285.446 114.215 281.86 114.129C274.653 113.957 270.457 115.887 268.828 117.261C267.191 118.319 268.775 123.843 269.066 123.83C269.383 123.916 268.977 120.662 271.074 118.782C272.245 118.006 275.727 116.791 281.454 116.85C284.633 116.88 289.257 117.782 291.23 119.625C294.685 122.834 294.299 126.042 294.48 125.741C294.62 125.616 295.672 120.349 292.22 116.537Z" fill="#231F20"/>
<path d="M406.815 74.4925C401.332 68.7999 389.323 59.5648 380.692 60.9389L369.155 54.2556C368.313 69.3582 370.371 87.1567 382.104 106.805C398.917 134.952 392.997 141.549 399.635 153.943C407.791 144.647 409.307 139.365 412.02 134.483C416.419 126.848 420.441 120.45 421.858 111.384C424.474 97.3365 416.045 84.2 406.815 74.4925Z" fill="#442D2D"/>
<path d="M406.815 74.4925C401.332 68.7999 389.323 59.5648 380.692 60.9389L369.155 54.2556C368.313 69.3582 370.371 87.1567 382.104 106.805C398.917 134.952 392.997 141.549 399.635 153.943C400.869 152.548 401.901 151.257 402.862 150.024C402.903 146.193 402.841 142.399 402.524 138.755C401.951 141.663 400.949 144.975 399.597 147.423C395.815 142.144 395.59 131.606 392.692 125.116C390.536 119.938 387.235 113.427 387.967 107.581C391.34 112.829 393.902 118.03 397.698 122.886C397.888 119.539 397.239 116.549 396.998 113.589C403.236 118.595 406.107 125.496 408.524 133.219C409.078 130.725 409.618 128.232 410.573 125.763C411.439 130.885 409.802 136.902 407.91 142.482C409.618 139.427 410.674 136.902 412.02 134.483C416.419 126.848 420.441 120.45 421.858 111.384C424.474 97.3365 416.045 84.2 406.815 74.4925Z" fill="#381F1D"/>
<path d="M257.232 85.8992C255.444 92.9475 264.434 66.5425 320.835 76.6334C377.237 86.7304 422.837 130.701 429.297 150.873C429.297 150.873 436.346 135.62 438.553 97.8365C439.363 83.97 437.726 57.2767 430.824 49.9279C390.171 6.63843 350.74 -11.8533 301.955 7.90209C293.241 11.4354 284.068 16.7293 272.682 40.2664C260.628 65.1899 259.303 77.7713 257.232 85.8992Z" fill="#E4E6E9"/>
<path d="M430.824 49.9279C425.933 44.7138 421.055 39.8862 416.179 35.4204C430.943 61.1751 412.94 96.1618 403.589 99.1002C359.682 104.143 349.924 56.2278 269.428 71.7843C262.111 73.4651 268.523 54.3477 269.995 46.0235C260.433 67.1621 259.137 78.4216 257.232 85.8992C255.444 92.9475 264.434 66.5426 320.835 76.6334C377.237 86.7304 422.837 130.701 429.297 150.873C429.297 150.873 436.346 135.62 438.553 97.8365C439.363 83.97 437.726 57.2768 430.824 49.9279Z" fill="#D8DADE"/>
<path d="M353.995 69.3029C353.886 69.401 353.743 69.4655 353.589 69.4655C353.269 69.4655 353.02 69.2139 352.993 68.8888C346.661 66.202 340.344 63.9906 334.127 62.3068C334.118 62.3068 334.106 62.3282 334.094 62.3282C334.023 62.3282 333.964 62.273 333.899 62.2516C325.965 60.1138 318.206 58.7581 310.916 58.5465C303.015 58.3103 296.197 58.6538 290.292 59.3654C290.209 59.6108 290.025 59.8101 289.758 59.8101C289.544 59.8101 289.39 59.6782 289.283 59.5065C282.853 60.3469 277.598 61.6228 273.286 63.0797C273.286 63.187 273.297 63.2975 273.291 63.4048C273.274 63.7545 272.986 64.0213 272.654 64.009C272.366 63.9906 272.17 63.7545 272.114 63.4753C267.369 65.1776 263.89 67.0455 261.41 68.714C261.212 69.401 261.019 70.0605 260.844 70.7107C266.959 66.2388 281.51 58.9391 310.881 59.8101C353.011 61.0493 410.204 97.4745 433.519 136.648C433.652 136.059 433.786 135.482 433.919 134.844C417.589 108.2 385.866 83.0344 353.995 69.3029Z" fill="#BFC3CA"/>
<path d="M328.358 12.3126C361.549 13.2941 404.088 36.1074 432.059 64.8832C432.273 64.8924 432.475 64.9691 432.581 65.1776C432.62 65.2482 432.593 65.331 432.602 65.4138C434.31 67.1866 435.897 69.0054 437.49 70.8181C437.395 70.0942 437.3 69.3765 437.19 68.6619C409.196 37.5183 363.607 12.0918 328.397 11.052C309.771 10.5091 297.045 13.1438 288.586 16.3305C287.821 17.0758 287.035 17.8733 286.252 18.7536C294.488 15.116 307.784 11.7084 328.358 12.3126Z" fill="#BFC3CA"/>
<path d="M270.516 50.4861C271.574 54.7188 272.268 59.1416 272.073 63.3466C272.07 63.3957 272.105 63.4325 272.114 63.4754C272.171 63.7546 272.366 63.9907 272.654 64.0091C272.986 64.0214 273.274 63.7546 273.292 63.4049C273.298 63.2975 273.286 63.1871 273.286 63.0798C273.449 58.6202 272.698 53.9581 271.548 49.5476C271.207 49.8574 270.866 50.1733 270.516 50.4861Z" fill="#BFC3CA"/>
<path d="M292.184 53.9062C291.908 52.9186 291.62 51.9463 291.321 50.9985C291.054 51.5813 290.811 52.1303 290.559 52.7039C290.775 53.4032 290.983 54.1055 291.178 54.8232C291.511 54.5165 291.849 54.2129 292.184 53.9062Z" fill="#BFC3CA"/>
<path d="M302.742 34.3748C302.404 34.6385 302.063 34.8962 301.725 35.1599L304.4 42.7848C304.501 43.0425 304.596 43.297 304.69 43.5547C305.037 43.297 305.376 43.0517 305.717 42.8002C305.657 42.6376 305.586 42.475 305.53 42.3094L302.742 34.3748Z" fill="#BFC3CA"/>
<path d="M310.421 57.0562C310.021 57.3475 309.668 57.6113 309.297 57.8904C309.789 60.2306 310.151 62.5647 310.151 64.8773C310.151 65.0062 310.213 65.1074 310.284 65.2086C310.391 65.3803 310.545 65.5122 310.759 65.5122C311.026 65.5122 311.21 65.3129 311.293 65.0675C311.317 65.0031 311.367 64.9479 311.367 64.8773C311.367 62.2795 310.999 59.6601 310.421 57.0562Z" fill="#BFC3CA"/>
<path d="M310.109 55.7373C309.125 51.796 307.674 47.867 306.18 44.0085C305.838 44.26 305.491 44.5054 305.15 44.7661C306.657 48.6675 308.036 52.618 308.982 56.5684C309.353 56.2924 309.712 56.0256 310.109 55.7373Z" fill="#BFC3CA"/>
<path d="M302.309 33.1447L301.763 31.5835C301.487 31.9976 301.208 32.4484 300.93 32.884L301.286 33.9145C301.624 33.6507 301.971 33.3962 302.309 33.1447Z" fill="#BFC3CA"/>
<path d="M318.906 23.9586L322.519 31.9883C322.872 31.8043 323.23 31.5743 323.589 31.3902L320.033 23.4771C319.663 23.6457 319.28 23.7838 318.906 23.9586Z" fill="#BFC3CA"/>
<path d="M318.631 21.8576C318.329 21.9987 318.187 22.3606 318.329 22.6765L318.394 22.8176C318.765 22.6459 319.142 22.4956 319.521 22.3361L319.453 22.1796C319.308 21.8668 318.937 21.7104 318.631 21.8576Z" fill="#BFC3CA"/>
<path d="M334.555 63.3314C334.624 63.6749 334.953 63.8926 335.282 63.8129C335.611 63.7362 335.816 63.3988 335.745 63.0584C335.279 60.8899 334.692 58.8288 334.078 56.7922L332.975 57.3811C333.55 59.3257 334.113 61.2733 334.555 63.3314Z" fill="#BFC3CA"/>
<path d="M327.903 43.8428C328.253 43.6312 328.609 43.4257 328.968 43.2049C327.737 40.426 326.462 37.6626 325.145 34.8531L324.104 32.5312C323.745 32.7153 323.386 32.9453 323.027 33.1355L324.051 35.4052C325.382 38.2422 326.666 41.0395 327.903 43.8428Z" fill="#BFC3CA"/>
<path d="M329.463 44.3704C329.104 44.5789 328.754 44.7967 328.398 45.0022C329.97 48.6245 331.438 52.2866 332.643 56.142L333.749 55.55C332.53 51.6732 331.038 48.0049 329.463 44.3704Z" fill="#BFC3CA"/>
<path d="M355.682 67.3801C355.646 66.049 355.519 64.6319 355.397 63.2241L354.223 63.8744C354.309 65.0675 354.43 66.2851 354.463 67.4138C354.469 67.6868 354.665 67.8708 354.899 67.9536C354.964 67.9751 355.023 68.0303 355.095 68.0303C355.106 68.0303 355.118 68.0088 355.127 68.0088C355.439 67.9782 355.694 67.7175 355.682 67.3801Z" fill="#BFC3CA"/>
<path d="M352.331 45.5238C351.364 41.6868 350.243 37.8989 348.974 34.2766C348.597 34.4392 348.226 34.6171 347.855 34.7796C349.14 38.4326 350.261 42.2419 351.222 46.1127C351.589 45.9164 351.96 45.717 352.331 45.5238Z" fill="#BFC3CA"/>
<path d="M341.339 18.9439C341.046 19.1341 340.963 19.5236 341.138 19.8211C341.775 20.8792 342.383 22.0908 343 23.2931C343.401 23.1673 343.801 23.0324 344.199 22.9158C343.534 21.6062 342.867 20.3057 342.182 19.1525C341.998 18.858 341.627 18.7691 341.339 18.9439Z" fill="#BFC3CA"/>
<path d="M352.642 46.772C352.277 46.9713 351.91 47.1676 351.545 47.3639C352.773 52.5443 353.674 57.6971 354.128 62.4941L355.303 61.8408C354.819 57.0469 353.885 51.9155 352.642 46.772Z" fill="#BFC3CA"/>
<path d="M348.541 33.0988C347.378 29.8906 346.135 26.802 344.807 24.0508C344.406 24.1612 344.009 24.2962 343.605 24.4219C344.97 27.2069 346.239 30.3353 347.423 33.6049C347.793 33.4362 348.164 33.2675 348.541 33.0988Z" fill="#BFC3CA"/>
<path d="M367.854 38.1043C368.227 37.9448 368.601 37.7792 368.987 37.6289C367.99 34.4391 366.899 31.2186 365.709 27.9307C365.327 28.0472 364.941 28.176 364.553 28.3018C365.751 31.6235 366.848 34.8838 367.854 38.1043Z" fill="#BFC3CA"/>
<path d="M371.965 54.1607C372.846 58.7307 373.477 63.3314 373.774 68.0395C374.157 67.8585 374.554 67.6776 374.948 67.4874C374.631 62.7701 373.988 58.1633 373.092 53.5872C372.715 53.7773 372.342 53.9613 371.965 54.1607Z" fill="#BFC3CA"/>
<path d="M363.771 22.6184C363.649 22.2963 363.296 22.1368 362.979 22.2656C362.67 22.3914 362.51 22.7533 362.638 23.0815C363.148 24.4494 363.628 25.7806 364.115 27.1209C364.503 26.9951 364.895 26.8663 365.283 26.7467C364.782 25.3818 364.299 24.02 363.771 22.6184Z" fill="#BFC3CA"/>
<path d="M372.825 52.3173C371.908 47.8363 370.731 43.3644 369.352 38.8342C368.969 38.9937 368.595 39.1532 368.219 39.3066C369.61 43.8735 370.781 48.3791 371.698 52.8909C372.074 52.6915 372.448 52.5075 372.825 52.3173Z" fill="#BFC3CA"/>
<path d="M352.978 68.8368C352.978 68.8583 352.989 68.8675 352.992 68.8889C353.019 69.2141 353.268 69.4656 353.589 69.4656C353.743 69.4656 353.885 69.4012 353.995 69.303C354.113 69.1834 354.199 69.027 354.199 68.8368C354.199 66.9137 354.122 65.0213 354.016 63.135C353.624 63.3282 353.206 63.5215 352.814 63.7086C352.895 65.4016 352.978 67.1069 352.978 68.8368Z" fill="#BFC3CA"/>
<path d="M374.422 54.5439C374.037 54.6881 373.651 54.82 373.271 54.9672C374.716 59.9421 375.964 64.9568 376.691 69.9839C377.08 69.8244 377.459 69.6772 377.848 69.5177C377.109 64.5029 375.864 59.5035 374.422 54.5439Z" fill="#BFC3CA"/>
<path d="M389.496 45.1587C389.887 45.0268 390.276 44.9072 390.658 44.7815L387.295 33.4607C386.892 33.5343 386.494 33.6263 386.094 33.703L389.496 45.1587Z" fill="#BFC3CA"/>
<path d="M390.812 49.5816C391.864 52.842 392.923 56.1422 393.917 59.4639C394.293 59.3167 394.682 59.1787 395.071 59.0406C394.077 55.7281 393.018 52.4371 391.965 49.1767L391.019 45.99C390.628 46.1127 390.239 46.2354 389.848 46.358L390.812 49.5816Z" fill="#BFC3CA"/>
<path d="M386.194 31.9117C385.939 31.9945 385.812 32.2246 385.803 32.4761C386.165 32.4025 386.52 32.3258 386.882 32.2614C386.746 31.9976 386.473 31.8197 386.194 31.9117Z" fill="#BFC3CA"/>
<path d="M377.37 78.9276C377.37 79.2742 377.643 79.5564 377.981 79.5564C378.316 79.5564 378.589 79.2742 378.589 78.9276C378.589 76.2163 378.366 73.508 378.013 70.812C377.625 70.9623 377.233 71.1157 376.842 71.2721C377.162 73.8209 377.37 76.3819 377.37 78.9276Z" fill="#BFC3CA"/>
<path d="M417.641 68.242C418.026 68.107 418.412 67.9782 418.803 67.8463C417.813 63.3836 416.65 58.8688 415.313 54.5227C414.918 54.6055 414.509 54.6546 414.105 54.7405C415.467 59.1326 416.641 63.7149 417.641 68.242Z" fill="#BFC3CA"/>
<path d="M398.059 63.3804C397.677 63.5215 397.288 63.6472 396.896 63.776C398.305 70.306 399.385 76.5844 400.212 81.777C400.604 81.6359 400.998 81.4979 401.384 81.3476C400.55 76.1488 399.468 69.8888 398.059 63.3804Z" fill="#BFC3CA"/>
<path d="M410.085 41.0518C409.934 40.7421 409.563 40.6225 409.266 40.785C408.967 40.9445 408.854 41.3279 409.008 41.6346C410.8 45.1802 412.363 49.2411 413.736 53.532C414.139 53.44 414.552 53.3848 414.955 53.3081C413.543 48.8822 411.936 44.7017 410.085 41.0518Z" fill="#BFC3CA"/>
<path d="M400.906 86.166L402.182 93.7694C402.238 94.116 402.546 94.3184 402.885 94.2571C403.214 94.1957 403.43 93.843 403.371 93.5026L402.111 85.9697C401.956 84.9514 401.764 83.7644 401.586 82.6143C401.197 82.7676 400.806 82.9026 400.414 83.0437C400.58 84.108 400.758 85.2183 400.906 86.166Z" fill="#BFC3CA"/>
<path d="M420.644 96.3213C421.035 96.1618 421.415 95.9962 421.806 95.8305C420.682 88.7608 419.042 81.6972 417.156 74.7686C416.794 74.9771 416.426 75.1857 416.059 75.4035C417.927 82.2892 419.546 89.3129 420.644 96.3213Z" fill="#BFC3CA"/>
<path d="M422.086 114.641C422.083 114.991 422.35 115.273 422.683 115.282C423.024 115.289 423.302 115.006 423.308 114.663C423.415 108.89 422.881 103.011 422.006 97.1035C421.615 97.2691 421.232 97.444 420.844 97.6035C421.692 103.333 422.196 109.05 422.086 114.641Z" fill="#BFC3CA"/>
<path d="M432.718 61.9543L430.864 55.866C430.766 55.5287 430.419 55.3446 430.093 55.452C429.778 55.5501 429.597 55.9059 429.701 56.2402L431.561 62.3377C431.697 62.7885 431.84 63.2609 431.982 63.7271C432.373 63.6075 432.765 63.494 433.159 63.3866C433.011 62.9143 432.866 62.4266 432.718 61.9543Z" fill="#BFC3CA"/>
<path d="M415.717 74.1491C416.085 73.9436 416.453 73.735 416.815 73.5203C415.436 68.5332 413.979 63.6381 412.526 58.8901C412.135 59.0006 411.74 59.111 411.346 59.2275C412.832 64.0736 414.317 69.0669 415.717 74.1491Z" fill="#BFC3CA"/>
<path d="M431.77 91.8832C432.95 97.8273 434.021 103.836 434.765 109.881C434.99 109.826 435.234 109.863 435.379 110.071C435.587 110.347 435.524 110.743 435.26 110.955C435.157 111.034 435.023 111.117 434.916 111.2C435.432 115.73 435.744 120.276 435.744 124.827C436.091 122.653 436.423 120.337 436.737 117.85C436.165 108.838 434.62 99.8946 432.858 91.095C432.517 91.3679 432.137 91.6256 431.77 91.8832Z" fill="#BFC3CA"/>
<path d="M431.472 84.2554L428.586 69.5699C428.518 69.2264 428.195 68.9964 427.865 69.0669C427.53 69.1344 427.32 69.4534 427.385 69.8L430.274 84.5222C430.686 86.522 431.101 88.5279 431.507 90.5491C431.869 90.2884 432.261 90.0369 432.593 89.7609C432.222 87.9206 431.849 86.0864 431.472 84.2554Z" fill="#BFC3CA"/>
<path d="M301.723 35.1598C302.061 34.896 302.403 34.6384 302.741 34.3746C307.824 30.4763 313.258 26.5871 318.905 23.9586C319.278 23.7838 319.661 23.6458 320.032 23.4771C322.111 22.5815 324.21 21.83 326.337 21.3608C326.666 21.2933 326.874 20.9559 326.803 20.6124C326.728 20.275 326.408 20.0603 326.079 20.1308C323.866 20.6216 321.675 21.4006 319.521 22.3361C319.142 22.4956 318.765 22.6459 318.394 22.8176C312.753 25.437 307.356 29.274 302.308 33.1447C301.97 33.3962 301.623 33.6508 301.284 33.9145C300.635 34.4237 299.985 34.9267 299.345 35.4266C298.784 36.3529 298.227 37.2945 297.66 38.3128L299.131 37.1718C299.982 36.5062 300.851 35.8315 301.723 35.1598Z" fill="#BFC3CA"/>
<path d="M288.411 59.0374C289.446 58.0406 290.481 57.145 291.516 56.188C291.866 55.8752 292.207 55.5593 292.548 55.2495C296.736 51.4493 300.941 47.9528 305.15 44.766C305.491 44.5053 305.838 44.26 306.179 44.0084C311.785 39.8402 317.399 36.2026 323.028 33.1355C323.387 32.9453 323.746 32.7153 324.105 32.5312C330.6 29.0685 337.11 26.3939 343.605 24.4218C344.009 24.296 344.406 24.161 344.807 24.0506C345.432 23.8635 346.061 23.6274 346.69 23.4587C347.019 23.3697 347.215 23.0293 347.126 22.6888C347.04 22.3576 346.711 22.1551 346.384 22.2349C345.655 22.4343 344.928 22.7072 344.199 22.9158C343.801 23.0323 343.401 23.1673 343 23.2931C336.535 25.2806 330.054 27.9428 323.589 31.3903C323.23 31.5743 322.871 31.8043 322.518 31.9884C316.901 35.0524 311.295 38.6655 305.717 42.8C305.375 43.0515 305.037 43.2969 304.69 43.5545C300.503 46.7045 296.336 50.158 292.183 53.9061C291.848 54.2128 291.51 54.5164 291.178 54.8232C290.324 55.5991 289.478 56.3475 288.627 57.1542C288.348 57.8167 288.067 58.4853 287.803 59.1263C288.01 59.1969 288.236 59.1999 288.411 59.0374Z" fill="#BFC3CA"/>
<path d="M328.968 43.2048C328.609 43.4256 328.253 43.6311 327.903 43.8428C320.574 48.241 314.542 52.4675 310.108 55.7371C309.71 56.0254 309.352 56.2923 308.981 56.5683C307.694 57.5283 306.519 58.4147 305.552 59.1478L303.085 60.9972C302.815 61.2027 302.75 61.6045 302.945 61.8836C303.144 62.1719 303.518 62.2333 303.791 62.0309L306.273 60.166C307.139 59.5097 308.177 58.7276 309.295 57.8902C309.666 57.6111 310.019 57.3473 310.419 57.056C314.841 53.7803 320.948 49.4832 328.398 45.0022C328.754 44.7967 329.104 44.5789 329.463 44.3703C334.926 41.1284 341.095 37.8373 347.854 34.7794C348.225 34.6168 348.596 34.439 348.972 34.2764C353.881 32.1049 359.08 30.0775 364.552 28.3016C364.941 28.1759 365.326 28.0471 365.709 27.9305C368.399 27.0778 371.116 26.2681 373.915 25.5658C374.244 25.4799 374.443 25.1425 374.366 24.799C374.286 24.4647 373.951 24.2561 373.631 24.3328C370.78 25.0566 368.01 25.8817 365.282 26.7466C364.893 26.8662 364.502 26.995 364.113 27.1208C358.65 28.9059 353.442 30.924 348.539 33.0986C348.163 33.2673 347.792 33.436 347.421 33.6047C340.641 36.6657 334.455 39.9659 328.968 43.2048Z" fill="#BFC3CA"/>
<path d="M352.33 45.5238C351.959 45.717 351.588 45.9164 351.221 46.1126C348.222 47.7198 345.233 49.3485 342.285 50.9802L333.749 55.5502L332.643 56.1422L328.378 58.4241C328.078 58.5836 327.951 58.9731 328.105 59.2829C328.259 59.5865 328.612 59.7184 328.912 59.5589L332.975 57.3813L334.078 56.7924L342.854 52.0935C345.725 50.5078 348.632 48.9252 351.544 47.364C351.909 47.1677 352.277 46.9714 352.641 46.7721C357.752 44.073 362.939 41.5181 368.218 39.3067C368.595 39.1533 368.968 38.9938 369.351 38.8343C374.811 36.6076 380.387 34.8287 386.093 33.703C386.494 33.6264 386.891 33.5343 387.294 33.4607C387.831 33.3687 388.362 33.2215 388.902 33.1448C389.237 33.0865 389.465 32.7676 389.415 32.421C389.365 32.0805 389.056 31.8382 388.724 31.8904C388.104 31.9885 387.499 32.1449 386.882 32.2615C386.52 32.3259 386.164 32.4026 385.803 32.4762C380.064 33.6141 374.464 35.3992 368.986 37.629C368.601 37.7793 368.227 37.9449 367.853 38.1044C362.58 40.3035 357.413 42.837 352.33 45.5238Z" fill="#BFC3CA"/>
<path d="M372.824 52.3174C372.447 52.5075 372.074 52.6916 371.697 52.8909C367.361 55.1299 363.111 57.4886 359.021 59.7736L355.302 61.8408L354.127 62.4941L352.348 63.4817C352.054 63.6412 351.939 64.0277 352.096 64.3344C352.256 64.6411 352.621 64.7607 352.917 64.592L354.222 63.8743L355.397 63.2241L359.605 60.8839C363.588 58.6541 367.744 56.3476 371.964 54.1607C372.341 53.9614 372.714 53.7773 373.091 53.5872C378.587 50.7715 384.207 48.2412 389.848 46.3579C390.24 46.2353 390.628 46.1126 391.02 45.9899C395.741 44.4993 400.463 43.4472 405.105 43.2325C405.443 43.2203 405.704 42.9228 405.689 42.5731C405.674 42.2235 405.386 41.9566 405.051 41.975C400.291 42.1928 395.471 43.2663 390.658 44.7814C390.275 44.9072 389.887 45.0268 389.495 45.1587C383.875 47.0296 378.287 49.5386 372.824 52.3174Z" fill="#BFC3CA"/>
<path d="M393.107 49.0386C393.51 48.9527 393.919 48.9036 394.314 48.8208C399.101 47.8301 403.98 47.0879 408.915 46.775C409.247 46.7566 409.505 46.4591 409.484 46.1064C409.463 45.7629 409.176 45.496 408.841 45.5114C403.802 45.8396 398.834 46.5879 393.955 47.6062C393.552 47.6829 393.139 47.7381 392.736 47.8301C386.267 49.2379 380.03 51.1764 374.072 53.3387C373.683 53.4767 373.295 53.6147 372.918 53.762C366.097 56.277 359.729 59.0589 353.949 61.7856C353.554 61.9757 353.157 62.1567 352.774 62.3376C352.154 62.6352 351.499 62.9419 350.891 63.224C350.585 63.3713 350.452 63.7455 350.594 64.0614C350.739 64.3804 351.104 64.5184 351.407 64.365C351.858 64.1503 352.353 63.9234 352.816 63.7087C353.207 63.5216 353.625 63.3283 354.017 63.1351C359.865 60.3685 366.337 57.5345 373.271 54.9673C373.651 54.8201 374.036 54.6882 374.422 54.5441C380.389 52.3879 386.635 50.4402 393.107 49.0386Z" fill="#BFC3CA"/>
<path d="M411.347 59.2276C411.742 59.111 412.136 59.0006 412.528 58.8902C413.928 58.4945 415.357 58.0344 416.745 57.6909C417.068 57.5989 417.273 57.2677 417.19 56.918C417.116 56.5868 416.784 56.3813 416.457 56.4579C415.04 56.8107 413.589 57.2861 412.16 57.6848C411.765 57.7921 411.374 57.9056 410.982 58.0252C406.611 59.2674 402.218 60.6354 397.805 62.1444C397.414 62.2763 397.028 62.4051 396.643 62.5401C390.23 64.7637 383.931 67.1285 377.848 69.5178C377.459 69.6773 377.08 69.8245 376.691 69.984C374.6 70.8121 372.459 71.6464 370.442 72.4561C370.131 72.5818 369.971 72.9468 370.095 73.2689C370.217 73.5971 370.576 73.7535 370.884 73.6308C372.8 72.8579 374.846 72.0604 376.842 71.2722C377.234 71.1158 377.625 70.9624 378.014 70.8121C384.127 68.3983 390.459 66.0212 396.898 63.7761C397.289 63.6473 397.678 63.5215 398.06 63.3804C402.515 61.8561 406.943 60.4759 411.347 59.2276Z" fill="#BFC3CA"/>
<path d="M432.061 64.8834C431.966 64.8803 431.871 64.8588 431.779 64.914L420.346 71.4256C419.177 72.1218 418 72.8211 416.816 73.5204C416.454 73.7351 416.087 73.9437 415.719 74.1492C411.137 76.8237 406.412 79.3694 401.385 81.3477C400.999 81.498 400.605 81.636 400.213 81.7771C396.853 83.0224 393.368 84.0407 389.676 84.6081C389.343 84.6602 389.115 84.9823 389.162 85.3289C389.213 85.6724 389.521 85.9086 389.859 85.8533C393.564 85.2798 397.052 84.2799 400.415 83.0438C400.806 82.9028 401.198 82.7678 401.586 82.6145C406.67 80.6362 411.439 78.0812 416.06 75.4036C416.428 75.1859 416.795 74.9773 417.157 74.7687C418.435 74.0204 419.696 73.2658 420.954 72.5113L432.322 66.0427C432.544 65.9139 432.621 65.6624 432.603 65.414C432.595 65.3312 432.621 65.2484 432.583 65.1778C432.476 64.9692 432.274 64.8926 432.061 64.8834Z" fill="#BFC3CA"/>
<path d="M413.589 99.0573L409.473 100.615C409.152 100.735 408.998 101.088 409.12 101.422C409.235 101.747 409.597 101.907 409.911 101.787L413.998 100.241C416.077 99.4744 418.435 98.5942 420.844 97.6035C421.232 97.444 421.615 97.2692 422.006 97.1035C425.458 95.6313 428.896 93.9076 431.77 91.8833C432.138 91.6257 432.517 91.368 432.858 91.095C434.848 89.5461 436.5 87.847 437.467 85.9423C437.624 85.6325 437.509 85.2552 437.212 85.0896C436.916 84.9362 436.545 85.0528 436.391 85.3564C435.575 86.9544 434.246 88.4174 432.594 89.7608C432.262 90.0369 431.871 90.2884 431.509 90.5491C428.73 92.5887 425.289 94.3339 421.808 95.8307C421.416 95.9963 421.036 96.1619 420.645 96.3214C418.165 97.3489 415.728 98.2598 413.589 99.0573Z" fill="#BFC3CA"/>
<path d="M423.669 116.178C423.36 116.316 423.218 116.69 423.36 117.006C423.497 117.328 423.855 117.472 424.164 117.334C428.794 115.2 432.21 113.246 434.915 111.2C435.022 111.117 435.155 111.034 435.259 110.955C435.523 110.743 435.585 110.347 435.378 110.071C435.232 109.863 434.989 109.826 434.764 109.881C434.681 109.9 434.598 109.89 434.527 109.946C431.884 111.991 428.34 114.034 423.669 116.178Z" fill="#BFC3CA"/>
<path d="M173.945 460.294C174.63 444.532 169.099 447.155 160.779 434.258C155.927 426.381 156.85 411.325 150.601 405.592C143.675 398.427 124.723 399.394 116.41 398.673C103.236 397.234 90.0644 390.073 83.1303 402.967C74.814 420.164 88.6764 437.368 94.2226 452.415C102.539 475.345 95.6136 504.007 121.95 511.89C132.346 515.475 146.908 526.222 157.997 525.508C171.169 524.793 181.11 513.083 180.176 494.689V491.821C175.327 481.077 173.251 472.48 173.945 460.294Z" fill="#ECCA9F"/>
<path d="M163.327 490.162C161.598 484.439 166.148 478.299 167.186 472.934C158.522 471.854 156.992 464.282 155.598 456.752C154.219 451.019 150.455 440.067 153.572 434.69C155.284 435.405 162.067 439.205 164.783 439.668C163.544 438.199 162.197 436.469 160.779 434.258C159.821 432.699 159.118 430.813 158.513 428.835C157.538 428.439 156.63 428.065 155.918 427.691C143.862 421.787 143.984 411.389 139.588 400.608C131.471 398.927 121.758 399.127 116.41 398.673C103.236 397.234 90.0644 390.073 83.1303 402.967C74.814 420.164 88.6764 437.368 94.2226 452.415C102.539 475.345 95.6136 504.007 121.95 511.89C132.346 515.475 146.908 526.222 157.997 525.508C171.169 524.793 181.11 513.083 180.176 494.689V491.821C179.957 491.349 179.782 490.886 179.574 490.414C177.044 502.513 165.759 497.707 163.327 490.162Z" fill="#E9B27A"/>
<path d="M172.262 568.533L172.247 568.506L137.941 379.206C137.941 379.206 136.438 369.851 132.161 365.431C128.195 361.269 119.399 360.935 119.399 360.935L17.7143 360.929C17.0203 360.923 16.3708 360.956 15.7242 361.051L15.7094 361.064C15.0836 361.14 14.4993 361.291 13.918 361.447L13.7579 361.521C13.316 361.668 12.8741 361.833 12.4707 362.057L12.0288 362.244C11.5602 362.484 11.0886 362.76 10.6556 363.085C5.93691 366.492 9.92599 363.278 5.2429 366.664C5.25477 366.643 5.31705 366.603 5.35561 366.603C1.25086 369.507 -0.866761 375.102 0.334411 381.61L38.152 566.702C39.8782 576.229 48.1025 584.062 56.4603 584.13L154.888 589.212C157.679 589.255 160.129 588.378 162.116 586.887C162.03 586.942 162.018 586.985 161.956 587.04L167.351 583.437C167.351 583.437 172.526 580.308 172.701 576.266C172.926 572.275 172.262 568.533 172.262 568.533Z" fill="#27302C"/>
<path d="M114.256 365.37C122.634 365.45 130.811 373.259 132.549 382.804L166.876 572.095C168.608 581.639 163.249 589.286 154.888 589.212L56.4601 584.13C48.1023 584.063 39.878 576.229 38.1519 566.703L0.334249 381.61C-1.41264 372.066 3.94073 364.398 12.3282 364.493L114.256 365.37Z" fill="#414B4A"/>
<path d="M166.876 572.095L152.162 490.981C142.087 509.448 79.9172 499.459 91.6412 511.003C102.223 535.117 146.136 556.118 141.554 588.525L154.888 589.212C163.249 589.286 168.608 581.639 166.876 572.095Z" fill="#343E3B"/>
<path d="M119.215 391.134C119.343 398.86 113.405 405.252 105.955 405.39C98.5107 405.549 92.3269 399.409 92.1668 391.717C92.0185 383.997 97.971 377.623 105.415 377.467C112.865 377.307 119.058 383.417 119.215 391.134Z" fill="#818B8E"/>
<path d="M117.999 391.161C118.135 398.21 112.714 404.016 105.928 404.169C99.1329 404.295 93.4918 398.707 93.3761 391.686C93.2249 384.644 98.6465 378.872 105.438 378.724C112.236 378.577 117.85 384.122 117.999 391.161Z" fill="#343E3B"/>
<path d="M114.657 391.244C114.761 396.385 110.816 400.587 105.881 400.688C100.907 400.801 96.8146 396.753 96.7108 391.609C96.6129 386.487 100.563 382.251 105.507 382.162C110.46 382.055 114.562 386.113 114.657 391.244Z" fill="#19201B"/>
<path d="M111.139 389.876C111.199 392.505 109.164 394.692 106.613 394.741C104.06 394.802 101.981 392.71 101.919 390.076C101.88 387.435 103.894 385.285 106.433 385.23C108.98 385.165 111.077 387.236 111.139 389.876Z" fill="#596465"/>
<path d="M106.868 393.768C106.9 395.293 105.687 396.587 104.222 396.596C102.719 396.627 101.497 395.4 101.476 393.867C101.431 392.321 102.618 391.057 104.101 391.026C105.613 390.996 106.826 392.22 106.868 393.768Z" fill="#878894"/>
<path d="M108.741 391.373C108.764 393.124 107.442 394.52 105.727 394.547C104.069 394.593 102.661 393.232 102.631 391.511C102.616 389.747 103.945 388.309 105.624 388.291C107.302 388.254 108.714 389.609 108.741 391.373Z" fill="#19201B"/>
<path d="M87.5114 392.634C87.6063 396.741 84.415 400.17 80.417 400.237C76.4131 400.329 73.0854 397.054 73.0172 392.931C72.9342 388.797 76.1136 385.349 80.1056 385.263C84.1214 385.196 87.4313 388.478 87.5114 392.634Z" fill="#BFC3CA"/>
<path d="M86.8777 392.643C86.9578 396.406 84.0513 399.516 80.4003 399.578C76.7523 399.67 73.7271 396.682 73.6737 392.91C73.5877 389.119 76.4913 386.021 80.1245 385.947C83.7903 385.877 86.8006 388.83 86.8777 392.643Z" fill="#949EA2"/>
<path d="M85.1017 392.689C85.1373 395.394 83.0167 397.701 80.3622 397.765C77.7048 397.802 75.4923 395.597 75.4448 392.879C75.3796 390.131 77.5002 387.861 80.1635 387.794C82.8328 387.736 85.0245 389.941 85.1017 392.689Z" fill="#7D878A"/>
<path d="M83.2012 391.922C83.2219 393.364 82.1246 394.539 80.784 394.557C79.393 394.594 78.2719 393.453 78.2393 392.033C78.2007 390.61 79.2744 389.441 80.6832 389.413C82.0208 389.386 83.1834 390.514 83.2012 391.922Z" fill="#B9C0C4"/>
<path d="M80.8972 394.02C80.9269 394.839 80.2714 395.511 79.4676 395.538C78.6847 395.538 78.0292 394.9 77.9966 394.078C77.9758 393.232 78.6224 392.566 79.4232 392.566C80.2299 392.545 80.8735 393.186 80.8972 394.02Z" fill="#BFC3CA"/>
<path d="M81.897 392.75C81.9059 393.695 81.2089 394.431 80.3043 394.456C79.3938 394.474 78.6464 393.744 78.6316 392.805C78.6049 391.867 79.3374 391.088 80.2302 391.066C81.1348 391.036 81.8762 391.815 81.897 392.75Z" fill="#7D878A"/>
<path d="M138.238 391.557C137.55 391.867 137.14 393.051 137.357 394.241L151.904 477.516C152.091 478.682 152.8 479.403 153.503 479.133C154.179 478.826 154.58 477.612 154.387 476.461L139.836 393.155C139.641 391.987 138.917 391.244 138.238 391.557Z" fill="#414B4A"/>
<path d="M40.4809 362.76C40.5076 363.183 41.4982 363.514 42.6905 363.548L82.1927 364.14C83.3761 364.149 84.3044 363.821 84.2599 363.404C84.2392 362.984 83.2308 362.628 82.08 362.622L42.5807 362.036C41.3855 362.002 40.4572 362.34 40.4809 362.76Z" fill="#414B4A"/>
<path d="M427.762 556.786C436.944 486.908 442.04 416.928 475.293 356.184C477.621 321.722 500.253 299.283 476.767 287.802C447.924 273.687 431.057 268.424 414.261 256.904C404.848 250.451 390.567 244.635 390.567 244.635C390.567 244.635 373.771 267.329 359.954 274.089C318.755 294.231 311.85 249.432 311.85 249.432C311.85 249.432 250.439 270.789 242.191 281.079C237.576 286.842 230.601 338.275 232.843 388.668C234.596 428.151 243.867 474.885 244.985 488.871C246.343 505.86 246.868 529.875 247.067 548.588C303.312 582.673 367.344 574.606 427.762 556.786Z" fill="#DBD5DA"/>
<path d="M427.762 556.786C436.944 486.908 442.04 416.928 475.293 356.184C476.725 334.962 482.242 317.053 480.797 303.73C472.122 304.73 472.588 297.301 464.574 300.411C448.312 306.297 427.981 316.385 417.414 328.994C400.34 348.323 393.02 373.538 388.141 398.756C384.888 416.407 384.078 440.781 374.32 455.915C367.816 467.683 357.246 465.996 345.053 465.996C329.604 465.996 315.774 462.638 328.785 477.771C333.664 484.485 362.931 501.302 357.246 510.553C353.995 516.432 326.347 514.334 321.469 512.65C263.735 477.345 293.415 519.797 277.974 504.243C234.875 458.856 243.114 410.923 232.475 360.742C232.324 369.891 232.422 379.298 232.843 388.668C234.596 428.151 243.867 474.885 244.985 488.871C246.343 505.86 246.868 529.875 247.067 548.588C303.312 582.673 367.345 574.606 427.762 556.786Z" fill="#D0CAD0"/>
<path d="M365.304 287.664C355.565 287.085 345.543 291.541 336.082 285.925C363.483 287.557 377.328 276.598 398.113 247.985C393.765 245.942 390.568 244.635 390.568 244.635C390.568 244.635 373.772 267.329 359.954 274.089C318.755 294.231 311.851 249.432 311.851 249.432C311.851 249.432 307.183 250.948 299.979 253.374C320.146 294.24 337.927 304.273 365.304 287.664Z" fill="#D0CAD0"/>
<path d="M336.918 504.664C336.782 507.213 324.951 507.326 301.384 483.491C278.381 460.224 257.792 430.062 259.242 428.577C261.232 426.547 279.294 445.842 301.408 468.202C323.702 490.736 337.505 502.109 336.918 504.664Z" fill="#E5E2E6"/>
<path d="M288.82 424.48C290.069 422.017 307.532 430.359 329.859 425.299C351.984 420.342 367.279 408.107 369.017 410.316C370.666 411.644 347.861 434.012 322.785 439.76C297.053 445.459 287.055 426.114 288.82 424.48Z" fill="#E5E2E6"/>
<path d="M330.18 283.196C331.117 283.229 321.336 324.7 319.123 382.982C319.434 385.889 320.502 377.85 320.502 374.854C322.863 319.142 331.66 283.34 330.18 283.196Z" fill="#ECE8EE"/>
<path d="M342.68 283.508C343.611 283.542 334.032 324.185 331.697 381.555C331.401 384.313 327.21 387.699 319.508 384.865C319.828 387.116 324.938 387.585 328.121 386.595C331.06 385.681 332.083 383.472 332.427 381.463C332.736 379.445 333.002 376.666 333.002 375.173C335.363 319.455 344.16 283.656 342.68 283.508Z" fill="#AAA7AE"/>
<path d="M385.291 268.893C385.937 269.09 377.511 286.008 371.17 315.544C368.148 330.34 365.731 348.169 363.764 368.093C362.373 385.11 359.544 419.207 330.998 412.978C319.899 412.386 308.478 412.573 299.008 406.129C293.738 396.247 294.473 385.116 293.657 375.28C292.975 355.221 294.432 337.14 296.665 322.169C300.9 292.081 308.659 274.764 308.457 274.776C308.982 274.923 301.573 292.286 297.587 322.307C295.473 337.247 294.12 355.261 294.873 375.228C295.636 384.892 295.194 396.385 300.034 405.319C308.267 410.825 320.229 411.214 331.001 411.613C359.007 417.631 360.514 385.591 362.557 367.937C364.589 348.05 367.11 330.153 370.263 315.342C376.871 285.71 385.599 268.955 385.291 268.893Z" fill="#ECE8EE"/>
<path d="M336.651 281.217C336.651 281.217 331.882 264.176 330.043 255.472C328.919 250.138 314.487 242.332 308.27 233.333C304.774 228.272 305.809 242.761 303.475 251.776C303.475 251.776 317.812 279.463 336.651 281.217Z" fill="#DBD5DA"/>
<path d="M307.765 235.198C308.043 235.06 314.628 242.893 324.385 251.3C332.04 262.256 332.906 273.249 333.134 273.123C332.346 273.653 330.507 262.284 323.478 252.288C313.797 243.97 307.379 235.428 307.765 235.198Z" fill="#ECE8EE"/>
<path d="M394.283 245.669C392.691 243.905 389.218 239.256 388.877 231.919C388.45 223.052 387.512 217.951 382.719 221.767C376.453 226.757 364.729 242.899 344.798 250.129C338.57 252.398 339.688 254.153 339.006 262.738C338.418 270.129 336.339 279.819 336.135 281.3C359.357 282.794 382.755 267.703 394.283 245.669Z" fill="#DBD5DA"/>
<path d="M342.98 253.503C342.755 252.969 353.862 248.982 365.5 240.369C376.85 231.502 384.879 222.555 385.395 223.19C385.332 223.141 377.852 232.416 366.271 241.479C354.431 250.227 342.977 253.687 342.98 253.503Z" fill="#ECE8EE"/>
<path d="M261.194 526.943C261.194 526.943 230.417 527.759 223.088 525.68C217.249 523.802 208.965 516.371 197.472 509.289C185.977 502.204 165.913 499.284 158.901 494.634C158.67 497.072 161.108 503.615 159.663 506.136C156.929 507.988 147.367 509.497 127.039 508.028C115.508 507.191 98.6854 500.882 92.5876 504.664C82.4681 510.942 104.786 517.487 119.215 521.054C128.679 523.557 140.148 524.103 143.2 526.624C144.724 530.565 125.903 528.51 114.84 526.308C101.797 523.71 93.0829 519.364 86.4839 521.582C76.1657 525.081 84.9594 530.878 89.2303 531.826C86.3712 534.783 88.4681 537.877 94.8713 540.494C100.073 542.613 104.786 543.371 108.743 545.223C102.034 552.474 131.956 560.519 139.107 562.313C161.493 567.917 204.392 569.208 217.596 569.178C231.526 571.413 286.558 577.6 287.112 574.852C288.115 569.935 264.901 536.148 261.194 526.943Z" fill="#ECCA9F"/>
<path d="M162.175 496.336C160.903 495.784 159.797 495.226 158.901 494.634C158.67 497.072 161.108 503.615 159.663 506.136C158.154 507.16 154.461 508.056 148.123 508.424C158.634 510.491 166.577 508.66 172.671 506.976C163.525 504.035 159.868 506.976 162.175 496.336Z" fill="#E9B27A"/>
<path d="M261.194 526.943C261.194 526.943 244.692 527.02 231.764 526.428C232.407 530.694 235.163 534.921 236.198 538.917C237.716 543.963 238.633 548.692 239.244 553.732C239.546 556.256 241.376 560.666 240.463 562.872C238.33 567.917 223.691 566.025 219.728 565.712C194.726 563.507 173.689 562.559 148.993 559.409C139.846 558.461 136.794 554.992 129.175 549.95C132.529 545.539 123.074 539.865 120.022 537.66C115.452 529.777 88.2964 526.542 81.6914 525.953C81.9672 528.643 86.508 531.225 89.2306 531.826C86.3715 534.783 88.4684 537.878 94.8717 540.494C100.074 542.613 104.787 543.371 108.743 545.223C102.034 552.474 131.957 560.519 139.107 562.313C161.494 567.917 204.392 569.208 217.596 569.178C231.526 571.414 286.558 577.6 287.113 574.852C288.115 569.935 264.901 536.148 261.194 526.943Z" fill="#E9B27A"/>
<path d="M146.246 543.175C146.125 543.506 132.319 541.166 118.299 538.353C104.33 535.424 89.0023 532.409 89.0764 531.983C89.1506 531.569 104.618 533.903 118.622 536.841C132.636 539.657 146.415 542.708 146.246 543.175Z" fill="#B3885A"/>
<path d="M147.008 554.204C146.833 554.575 137.123 553.232 128.824 551.275C120.576 549.214 108.657 545.637 108.743 545.223C108.811 544.809 120.9 547.696 129.195 549.772C137.532 551.729 147.204 553.799 147.008 554.204Z" fill="#B3885A"/>
<path d="M467.97 527.364C483.636 509.381 499.702 346.848 495.727 325.319C488.698 288.971 481.975 285.3 457.248 299.568C434.64 312.891 413.155 333.021 404.616 362.073C399.373 378.007 398.071 401.89 394.037 419.229C390.436 433.126 390.626 457.783 388.547 472.302C386.011 485.736 382.592 486.154 382.04 498.361C382.357 502.109 384.499 510.056 383.304 513.178C381.972 523.484 376.758 516.853 364.969 522.315C356.068 524.996 335.292 517.273 308.051 523.159C297.982 525.33 232.846 525.68 232.846 525.68C244.214 543.914 248.15 588.169 258.047 594.601C269.234 601.907 311.15 598.453 324.716 602.165C352.361 609.731 426.036 607.302 442.615 593.767C465.484 575.079 448.807 549.376 467.97 527.364Z" fill="#DBD5DA"/>
<path d="M490.589 371.857C488.969 388.668 475.955 402.954 476.768 419.772C477.581 441.625 471.892 453.39 464.575 474.406C460.506 487.856 471.892 500.462 465.385 512.227C458.884 523.996 440.997 518.95 439.365 531.559C437.74 543.331 447.501 555.096 441.809 569.386C437.74 582.832 429.611 581.992 419.037 583.679C398.715 586.197 384.079 596.285 362.932 593.767C350.74 592.923 337.731 591.242 325.539 587.878C312.528 583.679 306.833 576.112 295.45 570.223C291.387 567.705 288.133 565.184 282.442 566.025C271.875 567.705 277.563 572.748 272.681 577.793C267.233 583.946 259.961 585.685 252.365 585.755C254.074 590.009 255.918 593.215 258.048 594.601C269.235 601.907 311.151 598.453 324.717 602.165C352.362 609.731 426.037 607.302 442.616 593.767C465.486 575.079 448.809 549.376 467.971 527.363C483.637 509.381 499.703 346.847 495.729 325.319C494.699 319.989 493.67 315.449 492.591 311.477C489.666 330.901 492.929 353.034 490.589 371.857Z" fill="#D0CAD0"/>
<path d="M447.057 495.263C446.983 495.281 433.601 504.817 417.773 513.423C400.713 522.545 386.77 511.534 387.45 511.491C387.313 510.905 401.641 518.705 418.206 509.832C433.803 501.351 446.79 494.545 447.057 495.263Z" fill="#C2BEC4"/>
<path d="M415.62 542.948C415.889 542.751 418.493 548.266 422.815 556.759C424.393 561.522 430.428 560.215 434.121 555.406C437.686 550.591 431.41 543.803 426.605 539.095C404.539 520.429 382.325 520.705 383.321 518.84C382.58 520.064 408.089 519.732 430.998 538.994C435.876 543.852 440.456 552.121 436.265 558.09C432.086 563.651 423.669 562.553 422.014 557.25C417.805 548.453 415.62 543.015 415.62 542.948Z" fill="#C2BEC4"/>
<path d="M447.579 429.001C447.585 429.034 434.028 453.734 419.89 474.612C405.684 496.382 389.001 496.622 389.075 495.883C388.93 495.815 408.398 488.442 422.468 466.901C436.499 446.177 447.004 428.577 447.579 429.001Z" fill="#C2BEC4"/>
<path d="M405.455 495.37C404.75 493.785 424.997 481.099 437.914 468.551C450.421 455.531 460.075 444.033 461.133 444.968C461.913 445.649 447.419 466.668 434.491 480.151C420.905 493.315 405.619 496.137 405.455 495.37Z" fill="#E5E2E6"/>
<path d="M398.756 469.554C397.872 468.499 417.289 450.612 426.62 429.678C435.802 408.85 442.606 391.195 443.944 391.784C444.827 392.183 436.662 419.6 427.222 440.996C417.518 462.742 399.272 470.591 398.756 469.554Z" fill="#E5E2E6"/>
<path d="M401.322 562.884C399.913 563.077 397.579 554.342 392.555 544.564C387.16 534.979 379.19 525.106 380.012 523.836C380.433 522.919 395.031 529.642 400.892 540.092C406.34 550.686 402.339 562.826 401.322 562.884Z" fill="#E5E2E6"/>
<path d="M365.111 161.111C365.111 162.654 365.037 164.194 364.892 165.727C364.746 167.264 364.527 168.788 364.236 170.3C363.946 171.815 363.584 173.309 363.151 174.784C362.718 176.263 362.213 177.713 361.644 179.14C361.072 180.563 360.434 181.958 359.731 183.317C359.028 184.679 358.263 186.001 357.433 187.283C356.605 188.565 355.718 189.804 354.769 190.997C353.823 192.19 352.824 193.331 351.768 194.423C350.712 195.515 349.609 196.549 348.455 197.527C347.301 198.506 346.106 199.426 344.866 200.281C343.623 201.14 342.345 201.932 341.031 202.658C339.714 203.385 338.368 204.045 336.989 204.634C335.61 205.226 334.207 205.744 332.78 206.192C331.351 206.64 329.906 207.014 328.444 207.317C326.979 207.618 325.505 207.842 324.022 207.995C322.536 208.146 321.047 208.222 319.556 208.222C318.064 208.222 316.575 208.146 315.089 207.995C313.606 207.842 312.132 207.618 310.667 207.317C309.205 207.014 307.76 206.64 306.331 206.192C304.904 205.744 303.501 205.226 302.122 204.634C300.743 204.045 299.397 203.385 298.08 202.658C296.766 201.932 295.488 201.14 294.245 200.281C293.005 199.426 291.81 198.506 290.656 197.527C289.503 196.549 288.399 195.515 287.343 194.423C286.288 193.331 285.288 192.19 284.342 190.997C283.393 189.804 282.506 188.565 281.679 187.283C280.848 186.001 280.083 184.679 279.38 183.317C278.677 181.958 278.039 180.563 277.467 179.14C276.898 177.713 276.393 176.263 275.96 174.784C275.527 173.309 275.166 171.815 274.875 170.3C274.584 168.788 274.365 167.264 274.219 165.727C274.074 164.194 274 162.654 274 161.111C274 159.568 274.074 158.029 274.219 156.492C274.365 154.955 274.584 153.431 274.875 151.919C275.166 150.407 275.527 148.91 275.96 147.435C276.393 145.956 276.898 144.506 277.467 143.083C278.039 141.656 278.677 140.264 279.38 138.902C280.083 137.54 280.848 136.218 281.679 134.936C282.506 133.654 283.393 132.415 284.342 131.222C285.288 130.032 286.288 128.888 287.343 127.796C288.399 126.707 289.503 125.67 290.656 124.692C291.81 123.714 293.005 122.797 294.245 121.938C295.488 121.082 296.766 120.288 298.08 119.561C299.397 118.834 300.743 118.174 302.122 117.585C303.501 116.994 304.904 116.475 306.331 116.027C307.76 115.58 309.205 115.205 310.667 114.905C312.132 114.604 313.606 114.377 315.089 114.227C316.575 114.074 318.064 114 319.556 114C321.047 114 322.536 114.074 324.022 114.227C325.505 114.377 326.979 114.604 328.444 114.905C329.906 115.205 331.351 115.58 332.78 116.027C334.207 116.475 335.61 116.994 336.989 117.585C338.368 118.174 339.714 118.834 341.031 119.561C342.345 120.288 343.623 121.082 344.866 121.938C346.106 122.797 347.301 123.714 348.455 124.692C349.609 125.67 350.712 126.707 351.768 127.796C352.824 128.888 353.823 130.032 354.769 131.222C355.718 132.415 356.605 133.654 357.433 134.936C358.263 136.218 359.028 137.54 359.731 138.902C360.434 140.264 361.072 141.656 361.644 143.083C362.213 144.506 362.718 145.956 363.151 147.435C363.584 148.91 363.946 150.407 364.236 151.919C364.527 153.431 364.746 154.955 364.892 156.492C365.037 158.029 365.111 159.568 365.111 161.111Z" fill="#EBC99F"/>
<path d="M357.111 138.111C357.111 139.654 357.037 141.194 356.892 142.727C356.746 144.264 356.527 145.788 356.236 147.3C355.946 148.815 355.584 150.309 355.151 151.784C354.718 153.263 354.213 154.713 353.644 156.14C353.072 157.563 352.434 158.958 351.731 160.317C351.028 161.679 350.263 163.001 349.433 164.283C348.605 165.565 347.718 166.804 346.769 167.997C345.823 169.19 344.824 170.331 343.768 171.423C342.712 172.515 341.609 173.549 340.455 174.527C339.301 175.506 338.106 176.426 336.866 177.281C335.623 178.14 334.345 178.932 333.031 179.658C331.714 180.385 330.368 181.045 328.989 181.634C327.61 182.226 326.207 182.744 324.78 183.192C323.351 183.64 321.906 184.014 320.444 184.317C318.979 184.618 317.505 184.842 316.022 184.995C314.536 185.146 313.047 185.222 311.556 185.222C310.064 185.222 308.575 185.146 307.089 184.995C305.606 184.842 304.132 184.618 302.667 184.317C301.205 184.014 299.76 183.64 298.331 183.192C296.904 182.744 295.501 182.226 294.122 181.634C292.743 181.045 291.397 180.385 290.08 179.658C288.766 178.932 287.488 178.14 286.245 177.281C285.005 176.426 283.81 175.506 282.656 174.527C281.503 173.549 280.399 172.515 279.343 171.423C278.288 170.331 277.288 169.19 276.342 167.997C275.393 166.804 274.506 165.565 273.679 164.283C272.848 163.001 272.083 161.679 271.38 160.317C270.677 158.958 270.039 157.563 269.467 156.14C268.898 154.713 268.393 153.263 267.96 151.784C267.527 150.309 267.166 148.815 266.875 147.3C266.584 145.788 266.365 144.264 266.219 142.727C266.074 141.194 266 139.654 266 138.111C266 136.568 266.074 135.029 266.219 133.492C266.365 131.955 266.584 130.431 266.875 128.919C267.166 127.407 267.527 125.91 267.96 124.435C268.393 122.956 268.898 121.506 269.467 120.083C270.039 118.656 270.677 117.264 271.38 115.902C272.083 114.54 272.848 113.218 273.679 111.936C274.506 110.654 275.393 109.415 276.342 108.222C277.288 107.032 278.288 105.888 279.343 104.796C280.399 103.707 281.503 102.67 282.656 101.692C283.81 100.714 285.005 99.7965 286.245 98.9377C287.488 98.082 288.766 97.2876 290.08 96.5607C291.397 95.8338 292.743 95.1744 294.122 94.5855C295.501 93.9935 296.904 93.4752 298.331 93.0274C299.76 92.5796 301.205 92.2054 302.667 91.9048C304.132 91.6042 305.606 91.3773 307.089 91.227C308.575 91.0736 310.064 91 311.556 91C313.047 91 314.536 91.0736 316.022 91.227C317.505 91.3773 318.979 91.6042 320.444 91.9048C321.906 92.2054 323.351 92.5796 324.78 93.0274C326.207 93.4752 327.61 93.9935 328.989 94.5855C330.368 95.1744 331.714 95.8338 333.031 96.5607C334.345 97.2876 335.623 98.082 336.866 98.9377C338.106 99.7965 339.301 100.714 340.455 101.692C341.609 102.67 342.712 103.707 343.768 104.796C344.824 105.888 345.823 107.032 346.769 108.222C347.718 109.415 348.605 110.654 349.433 111.936C350.263 113.218 351.028 114.54 351.731 115.902C352.434 117.264 353.072 118.656 353.644 120.083C354.213 121.506 354.718 122.956 355.151 124.435C355.584 125.91 355.946 127.407 356.236 128.919C356.527 130.431 356.746 131.955 356.892 133.492C357.037 135.029 357.111 136.568 357.111 138.111Z" fill="#EBC99F"/>
<path d="M308.972 110.322C308.972 111.15 308.934 111.978 308.857 112.804C308.776 113.629 308.661 114.448 308.504 115.26C308.346 116.076 308.151 116.88 307.919 117.671C307.685 118.465 307.415 119.245 307.11 120.011C306.804 120.778 306.46 121.526 306.083 122.259C305.704 122.989 305.292 123.701 304.847 124.391C304.402 125.078 303.924 125.744 303.414 126.385C302.907 127.026 302.37 127.639 301.801 128.228C301.234 128.814 300.641 129.369 300.021 129.897C299.401 130.421 298.758 130.915 298.09 131.375C297.423 131.838 296.738 132.261 296.029 132.654C295.323 133.044 294.6 133.399 293.858 133.715C293.117 134.034 292.363 134.313 291.595 134.553C290.827 134.795 290.05 134.994 289.264 135.157C288.478 135.319 287.686 135.439 286.888 135.522C286.091 135.602 285.29 135.644 284.486 135.644C283.685 135.644 282.885 135.602 282.087 135.522C281.289 135.439 280.497 135.319 279.711 135.157C278.925 134.994 278.148 134.795 277.38 134.553C276.612 134.313 275.858 134.034 275.117 133.715C274.376 133.399 273.652 133.044 272.946 132.654C272.237 132.261 271.552 131.838 270.885 131.375C270.217 130.915 269.574 130.421 268.954 129.897C268.334 129.369 267.741 128.814 267.174 128.228C266.605 127.639 266.068 127.026 265.561 126.385C265.051 125.744 264.573 125.078 264.128 124.391C263.684 123.701 263.271 122.989 262.892 122.259C262.515 121.526 262.171 120.778 261.866 120.011C261.557 119.245 261.287 118.465 261.056 117.671C260.822 116.88 260.629 116.076 260.472 115.26C260.314 114.448 260.199 113.629 260.119 112.804C260.042 111.978 260 111.15 260 110.322C260 109.491 260.042 108.666 260.119 107.841C260.199 107.013 260.314 106.194 260.472 105.381C260.629 104.568 260.822 103.765 261.056 102.97C261.287 102.176 261.557 101.397 261.866 100.63C262.171 99.8633 262.515 99.1149 262.892 98.385C263.271 97.6519 263.684 96.9434 264.128 96.2533C264.573 95.5632 265.051 94.8976 265.561 94.2566C266.068 93.6156 266.605 93.0021 267.174 92.4163C267.741 91.8305 268.334 91.2723 268.954 90.7478C269.574 90.2203 270.217 89.7264 270.885 89.2664C271.552 88.8063 272.237 88.38 272.946 87.9905C273.652 87.5979 274.376 87.2451 275.117 86.9262C275.858 86.6102 276.612 86.3311 277.38 86.0888C278.148 85.8496 278.925 85.6472 279.711 85.4846C280.497 85.3251 281.289 85.2024 282.087 85.1196C282.885 85.0399 283.685 85 284.486 85C285.29 85 286.091 85.0399 286.888 85.1196C287.686 85.2024 288.478 85.3251 289.264 85.4846C290.05 85.6472 290.827 85.8496 291.595 86.0888C292.363 86.3311 293.117 86.6102 293.858 86.9262C294.6 87.2451 295.323 87.5979 296.029 87.9905C296.738 88.38 297.423 88.8063 298.09 89.2664C298.758 89.7264 299.401 90.2203 300.021 90.7478C300.641 91.2723 301.234 91.8305 301.801 92.4163C302.37 93.0021 302.907 93.6156 303.414 94.2566C303.924 94.8976 304.402 95.5632 304.847 96.2533C305.292 96.9434 305.704 97.6519 306.083 98.385C306.46 99.1149 306.804 99.8633 307.11 100.63C307.415 101.397 307.685 102.176 307.919 102.97C308.151 103.765 308.346 104.568 308.504 105.381C308.661 106.194 308.776 107.013 308.857 107.841C308.934 108.666 308.972 109.491 308.972 110.322Z" fill="#EBC99F"/>
<path d="M369.658 124.895C369.658 126.002 369.605 127.109 369.501 128.213C369.394 129.318 369.237 130.413 369.029 131.498C368.819 132.587 368.561 133.661 368.249 134.722C367.938 135.783 367.576 136.826 367.167 137.85C366.754 138.878 366.298 139.878 365.79 140.856C365.286 141.835 364.735 142.785 364.139 143.706C363.545 144.629 362.905 145.518 362.226 146.374C361.546 147.233 360.826 148.052 360.069 148.837C359.31 149.622 358.515 150.364 357.688 151.07C356.857 151.772 355.997 152.431 355.107 153.048C354.215 153.664 353.295 154.235 352.349 154.756C351.403 155.281 350.436 155.753 349.446 156.176C348.455 156.603 347.447 156.974 346.42 157.296C345.394 157.618 344.353 157.888 343.303 158.106C342.25 158.32 341.192 158.483 340.124 158.59C339.056 158.701 337.989 158.756 336.915 158.756C335.841 158.756 334.774 158.701 333.706 158.59C332.638 158.483 331.579 158.32 330.526 158.106C329.477 157.888 328.436 157.618 327.409 157.296C326.383 156.974 325.375 156.603 324.384 156.176C323.394 155.753 322.427 155.281 321.481 154.756C320.534 154.235 319.615 153.664 318.725 153.048C317.833 152.431 316.973 151.772 316.142 151.07C315.315 150.364 314.52 149.622 313.763 148.837C313.004 148.052 312.283 147.233 311.604 146.374C310.925 145.518 310.285 144.629 309.691 143.706C309.095 142.785 308.544 141.835 308.039 140.856C307.532 139.878 307.075 138.878 306.663 137.85C306.254 136.826 305.892 135.783 305.581 134.722C305.269 133.661 305.011 132.587 304.801 131.498C304.593 130.413 304.436 129.318 304.329 128.213C304.225 127.109 304.172 126.002 304.172 124.895C304.172 123.785 304.225 122.677 304.329 121.576C304.436 120.472 304.593 119.374 304.801 118.288C305.011 117.199 305.269 116.126 305.581 115.065C305.892 114.003 306.254 112.961 306.663 111.936C307.075 110.912 307.532 109.909 308.039 108.93C308.544 107.955 309.095 107.004 309.691 106.081C310.285 105.161 310.925 104.268 311.604 103.413C312.283 102.554 313.004 101.735 313.763 100.95C314.52 100.168 315.315 99.4223 316.142 98.7199C316.973 98.0145 317.833 97.355 318.725 96.7386C319.615 96.1221 320.534 95.5546 321.481 95.0302C322.427 94.5087 323.394 94.0333 324.384 93.6101C325.375 93.1868 326.383 92.8126 327.409 92.4906C328.436 92.1685 329.477 91.8986 330.526 91.6839C331.579 91.4662 332.638 91.3036 333.706 91.1962C334.774 91.0858 335.841 91.0337 336.915 91.0337C337.989 91.0337 339.056 91.0858 340.124 91.1962C341.192 91.3036 342.25 91.4662 343.303 91.6839C344.353 91.8986 345.394 92.1685 346.42 92.4906C347.447 92.8126 348.455 93.1868 349.446 93.6101C350.436 94.0333 351.403 94.5087 352.349 95.0302C353.295 95.5546 354.215 96.1221 355.107 96.7386C355.997 97.355 356.857 98.0145 357.688 98.7199C358.515 99.4223 359.31 100.168 360.069 100.95C360.826 101.735 361.546 102.554 362.226 103.413C362.905 104.268 363.545 105.161 364.139 106.081C364.735 107.004 365.286 107.955 365.79 108.93C366.298 109.909 366.754 110.912 367.167 111.936C367.576 112.961 367.938 114.003 368.249 115.065C368.561 116.126 368.819 117.199 369.029 118.288C369.237 119.374 369.394 120.472 369.501 121.576C369.605 122.677 369.658 123.785 369.658 124.895Z" fill="#EBC99F"/>
<path d="M384.17 129.035C384.17 130.143 384.119 131.25 384.012 132.354C383.909 133.458 383.751 134.553 383.541 135.642C383.333 136.728 383.072 137.804 382.761 138.866C382.449 139.927 382.088 140.97 381.678 141.994C381.269 143.018 380.809 144.018 380.305 144.997C379.798 145.975 379.249 146.926 378.653 147.846C378.057 148.769 377.419 149.659 376.737 150.518C376.058 151.373 375.34 152.195 374.581 152.977C373.822 153.763 373.03 154.508 372.199 155.21C371.372 155.913 370.512 156.572 369.619 157.189C368.726 157.805 367.81 158.376 366.864 158.897C365.918 159.421 364.948 159.894 363.957 160.32C362.967 160.743 361.958 161.118 360.932 161.437C359.906 161.759 358.868 162.029 357.815 162.246C356.765 162.461 355.703 162.624 354.639 162.734C353.571 162.841 352.5 162.897 351.427 162.897C350.356 162.897 349.285 162.841 348.218 162.734C347.15 162.624 346.091 162.461 345.041 162.246C343.988 162.029 342.95 161.759 341.924 161.437C340.898 161.118 339.889 160.743 338.899 160.32C337.908 159.894 336.938 159.421 335.992 158.897C335.046 158.376 334.13 157.805 333.237 157.189C332.344 156.572 331.484 155.913 330.657 155.21C329.826 154.508 329.034 153.763 328.275 152.977C327.516 152.195 326.798 151.373 326.116 150.518C325.437 149.659 324.799 148.769 324.203 147.846C323.607 146.926 323.055 145.975 322.551 144.997C322.047 144.018 321.587 143.018 321.178 141.994C320.766 140.97 320.407 139.927 320.095 138.866C319.784 137.804 319.523 136.728 319.315 135.642C319.105 134.553 318.948 133.458 318.844 132.354C318.737 131.25 318.684 130.143 318.684 129.035C318.684 127.925 318.737 126.821 318.844 125.717C318.948 124.613 319.105 123.518 319.315 122.429C319.523 121.34 319.784 120.267 320.095 119.205C320.407 118.144 320.766 117.101 321.178 116.077C321.587 115.052 322.047 114.052 322.551 113.074C323.055 112.096 323.607 111.145 324.203 110.222C324.799 109.302 325.437 108.412 326.116 107.553C326.798 106.698 327.516 105.876 328.275 105.09C329.034 104.308 329.826 103.563 330.657 102.861C331.484 102.155 332.344 101.496 333.237 100.879C334.13 100.266 335.046 99.6953 335.992 99.1708C336.938 98.6494 337.908 98.177 338.899 97.7507C339.889 97.3274 340.898 96.9533 341.924 96.6312C342.95 96.3092 343.988 96.0423 345.041 95.8245C346.091 95.6068 347.15 95.4442 348.218 95.3369C349.285 95.2295 350.356 95.1743 351.427 95.1743C352.5 95.1743 353.571 95.2295 354.639 95.3369C355.703 95.4442 356.765 95.6068 357.815 95.8245C358.868 96.0423 359.906 96.3092 360.932 96.6312C361.958 96.9533 362.967 97.3274 363.957 97.7507C364.948 98.177 365.918 98.6494 366.864 99.1708C367.81 99.6953 368.726 100.266 369.619 100.879C370.512 101.496 371.372 102.155 372.199 102.861C373.03 103.563 373.822 104.308 374.581 105.09C375.34 105.876 376.058 106.698 376.737 107.553C377.419 108.412 378.057 109.302 378.653 110.222C379.249 111.145 379.798 112.096 380.305 113.074C380.809 114.052 381.269 115.052 381.678 116.077C382.088 117.101 382.449 118.144 382.761 119.205C383.072 120.267 383.333 121.34 383.541 122.429C383.751 123.518 383.909 124.613 384.012 125.717C384.119 126.821 384.17 127.925 384.17 129.035Z" fill="#EBC99F"/>
</svg>
